<?xml version="1.0" standalone="no"?>
<!DOCTYPE svg PUBLIC "-//W3C//DTD SVG 20010904//EN"
 "http://www.w3.org/TR/2001/REC-SVG-20010904/DTD/svg10.dtd">
<svg version="1.0" xmlns="http://www.w3.org/2000/svg"
 width="512.000000pt" height="512.000000pt" viewBox="0 0 512.000000 512.000000"
 preserveAspectRatio="xMidYMid meet">
<metadata>
Created by potrace 1.15, written by Peter Selinger 2001-2017
</metadata>
<g transform="translate(0.000000,512.000000) scale(0.100000,-0.100000)"
fill="#000000" stroke="none">
<path d="M2235 4160 l-320 -960 -959 -2 -959 -3 779 -599 c428 -329 783 -602
788 -607 5 -4 -123 -431 -299 -993 -170 -543 -306 -989 -302 -992 3 -3 364
269 802 605 535 411 801 609 809 603 281 -221 1580 -1212 1585 -1210 4 2 -131
444 -300 983 -169 539 -308 983 -308 987 -1 3 353 280 786 615 l787 608 -960
3 -959 2 -320 960 c-176 528 -322 960 -325 960 -3 0 -149 -432 -325 -960z"/>
</g>
</svg>
