<?xml version="1.0" encoding="UTF-8"?>
<svg width="585px" height="106px" viewBox="0 0 585 106" version="1.1" xmlns="http://www.w3.org/2000/svg" xmlns:xlink="http://www.w3.org/1999/xlink">
    <!-- Generator: Sketch 48.2 (47327) - http://www.bohemiancoding.com/sketch -->
    <title>DA_VFA</title>
    <desc>Created with Sketch.</desc>
    <defs></defs>
    <g id="Page-1" stroke="none" stroke-width="1" fill="none" fill-rule="evenodd">
        <g id="DA_VFA">
            <path d="M515.0332,19.4077 C510.9002,19.4077 508.3102,22.1257 508.3102,30.0857 C508.3102,37.9767 510.4622,40.7527 514.9102,40.7527 C519.3522,40.7527 521.8762,38.0437 521.8762,30.0857 C521.8762,22.3097 519.4092,19.4077 515.0332,19.4077 M514.9102,46.7957 C506.4532,46.7957 500.7202,41.7347 500.7202,30.0857 C500.7202,19.5317 506.7002,13.3617 515.0962,13.3617 C523.2372,13.3617 529.4082,18.0497 529.4082,30.0857 C529.4082,41.0627 523.0602,46.7957 514.9102,46.7957" id="Fill-37" fill="#111645"></path>
            <path d="M553.1621,21.0127 C552.4151,20.8267 551.3051,20.7027 550.2541,20.7027 C548.0351,20.7027 545.9981,21.1937 543.7811,22.9257 L543.7811,46.1817 L536.7411,46.1817 L536.7411,14.2277 C538.7221,13.9747 541.5621,13.7897 543.7811,13.7897 L543.7811,17.9277 L544.1441,17.9277 C547.3541,13.7327 549.4581,13.3617 551.4911,13.3617 C552.1141,13.3617 553.0961,13.4797 553.8391,13.7327 C553.8391,16.1367 553.5291,18.6647 553.1621,21.0127" id="Fill-39" fill="#111645"></path>
            <path d="M569.6641,18.2944 C566.2061,18.2944 564.4821,20.0214 564.4821,23.7884 C564.4821,27.6734 566.3391,29.2744 569.6641,29.2744 C572.8721,29.2744 574.8491,27.8024 574.8491,23.7884 C574.8491,19.7144 572.8101,18.2944 569.6641,18.2944 M574.7161,45.6864 L564.0541,45.6864 C563.3741,46.5474 563.1861,47.9104 563.1861,48.7664 C563.1861,52.2854 564.7341,53.7084 570.2771,53.7084 C575.0291,53.7084 577.7471,52.2234 577.7471,48.6474 C577.7471,46.2414 577.0011,45.6864 574.7161,45.6864 M569.8451,59.5004 C560.0351,59.5004 556.8891,55.2494 556.8891,50.1324 C556.8891,47.6004 557.8791,45.9294 559.8531,43.9604 C559.1161,42.7294 558.3741,41.1874 557.9411,39.7054 C558.3741,37.9144 559.7261,34.0304 561.4591,31.8684 C559.2361,30.2644 557.8251,27.5524 557.8251,24.1554 C557.8251,17.7434 562.0781,13.3614 569.3541,13.3614 C570.5291,13.3614 571.5821,13.4804 572.5591,13.6704 C572.5591,7.6244 576.0761,4.9714 580.3951,4.9714 C583.2411,4.9714 584.5241,6.2664 584.5241,8.7964 L584.5241,11.1364 L581.0771,11.1364 C578.6101,11.1364 577.5581,12.2424 577.5581,14.6554 L577.5581,15.9514 C579.9611,17.8004 581.1991,20.7034 581.1991,24.0974 C581.1991,31.1914 576.4491,34.3394 570.0961,34.3394 C568.5501,34.3394 566.9491,34.0304 565.8401,33.7824 C564.7921,35.2544 564.4161,36.5544 564.4161,37.4164 C564.4161,38.7754 565.0351,39.2674 566.3391,39.2674 L575.1571,39.2674 C580.8241,39.2674 584.4101,41.1874 584.4101,47.9694 C584.4101,54.6994 579.7191,59.5004 569.8451,59.5004" id="Fill-41" fill="#111645"></path>
            <path d="M477.4541,26.4229 L469.3391,26.4229 L475.8741,31.2899 L473.8601,39.1619 L480.0421,34.2579 L486.1751,39.1619 L484.1611,31.2899 L490.6821,26.4229 L482.5871,26.4229 L480.0421,18.9039 L477.4541,26.4229 Z M479.9991,17.7459 C486.8341,17.7459 492.2631,23.1469 492.2631,29.9739 C492.2631,36.8109 486.8341,42.2119 479.9991,42.2119 C473.1661,42.2119 467.7661,36.8109 467.7661,29.9739 C467.7661,23.1469 473.1661,17.7459 479.9991,17.7459 Z" id="Fill-43" fill="#AC3226"></path>
            <path d="M20.7666,46.1816 L12.3716,46.1816 C7.8076,32.7296 3.6156,18.9086 0.0326,4.9716 C2.3156,4.5386 5.7706,4.2956 7.6256,4.2956 L15.9496,34.1516 C16.2566,35.1416 16.4436,36.3686 16.5716,37.5466 L17.1236,37.5466 C17.1856,36.3686 17.4336,35.2016 17.7436,34.1516 L26.1896,4.2956 C28.1066,4.2956 31.4986,4.5386 33.4106,4.9716 C29.7076,19.0366 25.4506,32.6736 20.7666,46.1816" id="Fill-45" fill="#111645"></path>
            <path d="M50.2314,19.4077 C46.1004,19.4077 43.5124,22.1257 43.5124,30.0857 C43.5124,37.9767 45.6694,40.7527 50.1064,40.7527 C54.5544,40.7527 57.0804,38.0437 57.0804,30.0857 C57.0804,22.3097 54.6104,19.4077 50.2314,19.4077 M50.1064,46.7957 C41.6614,46.7957 35.9184,41.7347 35.9184,30.0857 C35.9184,19.5317 41.9054,13.3617 50.2974,13.3617 C58.4354,13.3617 64.6064,18.0497 64.6064,30.0857 C64.6064,41.0627 58.2534,46.7957 50.1064,46.7957" id="Fill-47" fill="#111645"></path>
            <path d="M82.4219,46.7954 C75.2659,46.7954 72.1149,43.2814 72.1149,35.7554 L72.1149,20.1464 L68.3569,20.1464 L68.3569,13.9754 L72.1149,13.9754 L72.1149,7.1924 C74.1539,6.6944 76.9919,6.1434 79.1509,6.0184 L79.1509,13.9754 L87.4189,13.9754 C87.4189,15.9514 87.2969,18.0494 86.9859,20.1464 L79.1509,20.1464 L79.1509,36.2474 C79.1509,39.5774 80.3859,40.2574 83.3409,40.2574 C84.8929,40.2574 86.9259,39.8294 87.9739,39.2674 C88.4669,41.0624 88.7719,43.3394 88.9569,45.3814 C87.2969,46.2414 84.1479,46.7954 82.4219,46.7954" id="Fill-49" fill="#111645"></path>
            <path d="M100.1895,27.1167 L111.3545,27.1167 C111.4115,26.7527 111.4115,25.7027 111.4115,25.3307 C111.4115,20.7657 109.6245,18.7307 106.0515,18.7307 C102.3485,18.7307 100.2495,21.2507 100.1895,27.1167 M118.2615,31.8677 L100.1235,31.8677 L100.1235,32.4257 C100.1235,37.6697 101.7905,40.1297 107.8935,40.1297 C110.7995,40.1297 114.4995,39.2677 116.4135,38.1607 C117.0895,40.0157 117.7085,42.6047 118.0145,44.7657 C115.3635,46.0577 110.7995,46.7957 107.7715,46.7957 C97.9065,46.7957 92.4155,41.3717 92.4155,30.5117 C92.4155,18.9087 98.2165,13.3617 106.1725,13.3617 C114.6255,13.3617 118.5105,18.6647 118.5105,27.1167 C118.5105,28.4737 118.4435,30.3837 118.2615,31.8677" id="Fill-51" fill="#111645"></path>
            <path d="M149.7422,6.8232 C149.1292,6.6952 147.3962,6.6342 146.5342,6.6342 C144.0692,6.6342 143.0852,7.7472 143.0852,10.5852 L143.0852,13.9752 L150.1112,13.9752 C150.1112,16.0172 149.9312,18.1102 149.6202,20.1462 L143.0852,20.1462 L143.0852,47.3522 C143.0852,53.8942 139.6242,59.5002 132.7202,59.5002 C131.5442,59.5002 129.7532,59.3202 129.0142,59.1982 C129.0142,57.1612 129.1392,55.0022 129.3902,52.9042 C130.0012,53.0292 131.7912,53.1572 132.5952,53.1572 C135.0602,53.1572 136.0432,51.8612 136.0432,49.2022 L136.0432,20.1462 L132.3462,20.1462 L132.3462,13.9752 L136.0432,13.9752 L136.0432,11.1362 C136.0432,4.4792 140.5512,0.2812 146.4132,0.2812 C147.6492,0.2812 149.4292,0.4052 150.1752,0.5292 C150.1752,2.5622 150.0522,4.7212 149.7422,6.8232" id="Fill-53" fill="#111645"></path>
            <path d="M172.3784,21.0127 C171.6364,20.8267 170.5264,20.7027 169.4784,20.7027 C167.2594,20.7027 165.2214,21.1937 163.0034,22.9257 L163.0034,46.1817 L155.9654,46.1817 L155.9654,14.2277 C157.9394,13.9747 160.7844,13.7897 163.0034,13.7897 L163.0034,17.9277 L163.3664,17.9277 C166.5734,13.7327 168.6734,13.3617 170.7114,13.3617 C171.3294,13.3617 172.3184,13.4797 173.0584,13.7327 C173.0584,16.1367 172.7454,18.6647 172.3784,21.0127" id="Fill-55" fill="#111645"></path>
            <path d="M189.48,19.4077 C185.341,19.4077 182.752,22.1257 182.752,30.0857 C182.752,37.9767 184.907,40.7527 189.354,40.7527 C193.792,40.7527 196.318,38.0437 196.318,30.0857 C196.318,22.3097 193.856,19.4077 189.48,19.4077 M189.354,46.7957 C180.897,46.7957 175.158,41.7347 175.158,30.0857 C175.158,19.5317 181.145,13.3617 189.536,13.3617 C197.675,13.3617 203.85,18.0497 203.85,30.0857 C203.85,41.0627 197.494,46.7957 189.354,46.7957" id="Fill-57" fill="#111645"></path>
            <path d="M244.5205,46.1816 L244.5205,23.8486 C244.5205,21.2506 243.4745,19.5976 240.1475,19.5976 C237.7995,19.5976 235.9505,20.3366 234.2175,21.6936 L234.2175,46.1816 L227.1915,46.1816 L227.1915,23.9116 C227.1915,21.1936 226.1435,19.5976 222.9315,19.5976 C220.7705,19.5976 218.7405,20.3366 216.8855,21.6936 L216.8855,46.1816 L209.8485,46.1816 L209.8485,14.2276 C211.8295,13.9746 214.6665,13.7896 216.8855,13.7896 L216.8855,17.0006 L217.2585,17.0006 C220.2205,14.3476 222.4395,13.3616 225.5875,13.3616 C228.7895,13.3616 231.3835,14.4696 232.8025,17.5516 C236.0095,14.3476 238.7825,13.3616 242.2335,13.3616 C247.4875,13.3616 251.5575,16.0766 251.5575,23.2316 L251.5575,46.1816 L244.5205,46.1816 Z" id="Fill-59" fill="#111645"></path>
            <path d="M280.8726,15.5791 C280.5656,14.5941 280.4486,13.6711 280.3816,12.3801 L279.8826,12.3801 C279.8276,13.6711 279.7706,14.5941 279.4576,15.5791 L275.4496,28.7871 L284.8196,28.7871 L280.8726,15.5791 Z M290.0646,46.4921 L286.6766,35.1421 L273.6586,35.1421 L270.2636,46.4921 C267.9826,46.4921 265.4546,46.3071 263.2956,45.8141 C267.0556,32.4261 271.4346,18.6081 276.3096,4.6001 L284.7576,4.6001 C289.3246,18.2941 293.7706,32.5451 297.5986,45.8141 C295.2476,46.3071 292.6576,46.4921 290.0646,46.4921 Z" id="Fill-61" fill="#111645"></path>
            <path d="M317.207,19.5977 C314.859,19.5977 312.702,20.3367 310.97,21.8127 L310.97,39.3397 C312.268,40.2577 314.231,40.6867 316.091,40.6867 C321.217,40.6867 323.432,37.7297 323.432,29.5227 C323.432,21.8127 321.279,19.5977 317.207,19.5977 M316.471,46.7957 C311.653,46.7957 307.268,45.6857 303.939,43.0917 L303.939,0.7807 C305.918,0.5297 308.758,0.2817 310.97,0.2817 L310.97,16.7537 L311.344,16.7537 C313.94,14.1657 316.34,13.3617 319.359,13.3617 C325.896,13.3617 330.959,17.6177 330.959,28.8447 C330.959,40.3207 325.6,46.7957 316.471,46.7957" id="Fill-63" fill="#111645"></path>
            <path d="M354.2041,21.0127 C353.4641,20.8267 352.3511,20.7027 351.3051,20.7027 C349.0791,20.7027 347.0471,21.1937 344.8241,22.9257 L344.8241,46.1817 L337.7971,46.1817 L337.7971,14.2277 C339.7651,13.9747 342.6031,13.7897 344.8241,13.7897 L344.8241,17.9277 L345.2051,17.9277 C348.4091,13.7327 350.5051,13.3617 352.5391,13.3617 C353.1541,13.3617 354.1421,13.4797 354.8851,13.7327 C354.8851,16.1367 354.5781,18.6647 354.2041,21.0127" id="Fill-65" fill="#111645"></path>
            <path d="M372.8906,19.4077 C368.7456,19.4077 366.1626,22.1257 366.1626,30.0857 C366.1626,37.9767 368.3266,40.7527 372.7586,40.7527 C377.2076,40.7527 379.7356,38.0437 379.7356,30.0857 C379.7356,22.3097 377.2636,19.4077 372.8906,19.4077 M372.7586,46.7957 C364.3086,46.7957 358.5766,41.7347 358.5766,30.0857 C358.5766,19.5317 364.5556,13.3617 372.9476,13.3617 C381.0956,13.3617 387.2606,18.0497 387.2606,30.0857 C387.2606,41.0627 380.9116,46.7957 372.7586,46.7957" id="Fill-67" fill="#111645"></path>
            <path d="M413.2197,20.7031 C411.9917,19.9621 410.1377,19.5321 408.4767,19.5321 C403.5337,19.5321 401.2567,22.1261 401.2567,30.3261 C401.2567,38.4061 403.1627,40.5651 407.4237,40.5651 C409.8927,40.5651 411.6757,40.0161 413.2197,39.0241 L413.2197,20.7031 Z M420.3097,37.5471 C420.3097,39.1511 420.7547,39.7631 422.1627,39.7631 L425.8127,39.7631 L425.8127,42.0461 C425.8127,45.6231 423.4037,46.7951 420.6277,46.7951 C418.1537,46.7951 415.5707,45.9301 414.3287,42.5371 L414.1447,42.5371 C411.3087,45.5671 408.4087,46.7951 405.4517,46.7951 C397.9867,46.7951 393.7297,41.7351 393.7297,31.0031 C393.7297,19.4081 399.3987,13.3611 407.7907,13.3611 C409.6467,13.3611 411.4907,13.6711 413.2197,14.2281 C414.3287,13.7331 415.9977,13.4801 417.6037,13.4801 C418.5957,13.4801 419.5097,13.6041 420.3097,13.7331 L420.3097,37.5471 Z" id="Fill-69" fill="#111645"></path>
            <path d="M450.4697,20.7031 C449.2397,19.9621 447.0277,19.4081 445.2347,19.4081 C440.3617,19.4081 438.0177,22.0641 438.0177,30.3261 C438.0177,38.3491 439.9347,40.5651 444.1887,40.5651 C446.5917,40.5651 448.7437,40.0731 450.4697,38.9601 L450.4697,20.7031 Z M457.8167,46.7951 C455.4117,46.7951 452.7007,45.9301 451.5247,42.4771 L451.2817,42.4771 C448.0077,46.0581 444.8637,46.7951 441.8357,46.7951 C434.4317,46.7951 430.4867,41.3071 430.4867,31.0031 C430.4867,18.4161 436.2847,13.3611 444.5547,13.3611 C446.4067,13.3611 448.7437,13.7331 450.4697,14.2851 L450.4697,0.7801 C452.4487,0.5291 455.3527,0.2821 457.5027,0.2821 L457.5027,37.5471 C457.5027,39.1511 457.9477,39.7631 459.3617,39.7631 L462.9927,39.7631 L462.9927,42.0461 C462.9927,45.6231 460.5967,46.7951 457.8167,46.7951 Z" id="Fill-71" fill="#111645"></path>
            <path d="M515.082,19.2803 C510.949,19.2803 508.363,21.9973 508.363,29.9543 C508.363,37.8483 510.512,40.6233 514.958,40.6233 C519.399,40.6233 521.929,37.9143 521.929,29.9543 C521.929,22.1793 519.458,19.2803 515.082,19.2803 M514.958,46.6673 C506.502,46.6673 500.769,41.6113 500.769,29.9543 C500.769,19.4033 506.75,13.2333 515.145,13.2333 C523.281,13.2333 529.457,17.9223 529.457,29.9543 C529.457,40.9313 523.101,46.6673 514.958,46.6673" id="Fill-73" fill="#111645"></path>
            <path d="M553.2061,20.8862 C552.4631,20.6982 551.3511,20.5742 550.2991,20.5742 C548.0831,20.5742 546.0511,21.0662 543.8221,22.7982 L543.8221,46.0552 L536.7851,46.0552 L536.7851,14.0992 C538.7701,13.8492 541.6081,13.6642 543.8221,13.6642 L543.8221,17.8012 L544.1931,17.8012 C547.4081,13.6042 549.5031,13.2332 551.5401,13.2332 C552.1591,13.2332 553.1441,13.3562 553.8871,13.6042 C553.8871,16.0112 553.5731,18.5362 553.2061,20.8862" id="Fill-75" fill="#111645"></path>
            <path d="M569.7109,18.166 C566.2519,18.166 564.5259,19.894 564.5259,23.66 C564.5259,27.545 566.3839,29.146 569.7109,29.146 C572.9159,29.146 574.8929,27.67 574.8929,23.66 C574.8929,19.589 572.8549,18.166 569.7109,18.166 M574.7639,45.563 L564.0979,45.563 C563.4209,46.419 563.2359,47.779 563.2359,48.639 C563.2359,52.157 564.7829,53.578 570.3309,53.578 C575.0699,53.578 577.7919,52.095 577.7919,48.52 C577.7919,46.115 577.0499,45.563 574.7639,45.563 M569.8919,59.375 C560.0899,59.375 556.9359,55.118 556.9359,50.005 C556.9359,47.472 557.9229,45.805 559.8979,43.829 C559.1599,42.601 558.4169,41.059 557.9879,39.577 C558.4169,37.785 559.7739,33.898 561.5039,31.736 C559.2789,30.14 557.8739,27.426 557.8739,24.031 C557.8739,17.618 562.1229,13.233 569.3979,13.233 C570.5729,13.233 571.6299,13.356 572.6069,13.542 C572.6069,7.496 576.1159,4.843 580.4429,4.843 C583.2809,4.843 584.5769,6.139 584.5769,8.671 L584.5769,11.011 L581.1199,11.011 C578.6539,11.011 577.6019,12.117 577.6019,14.528 L577.6019,15.82 C580.0069,17.67 581.2439,20.575 581.2439,23.964 C581.2439,31.063 576.4919,34.208 570.1459,34.208 C568.5929,34.208 566.9979,33.898 565.8839,33.654 C564.8359,35.126 564.4699,36.426 564.4699,37.293 C564.4699,38.65 565.0799,39.142 566.3839,39.142 L575.2019,39.142 C580.8719,39.142 584.4579,41.059 584.4579,47.844 C584.4579,54.568 579.7629,59.375 569.8919,59.375" id="Fill-77" fill="#111645"></path>
            <path d="M477.5039,26.2944 L469.3869,26.2944 L475.9199,31.1614 L473.9109,39.0334 L480.0839,34.1264 L486.2229,39.0334 L484.2039,31.1614 L490.7339,26.2944 L482.6339,26.2944 L480.0839,18.7794 L477.5039,26.2944 Z M480.0489,17.6174 C486.8799,17.6174 492.3149,23.0174 492.3149,29.8484 C492.3149,36.6824 486.8799,42.0834 480.0489,42.0834 C473.2149,42.0834 467.8129,36.6824 467.8129,29.8484 C467.8129,23.0174 473.2149,17.6174 480.0489,17.6174 Z" id="Fill-79" fill="#AC3226"></path>
            <path d="M20.8232,46.0552 L12.4302,46.0552 C7.8672,32.6012 3.6722,18.7852 0.0922,4.8432 C2.3752,4.4102 5.8302,4.1632 7.6822,4.1632 L16.0092,34.0262 C16.3182,35.0162 16.5032,36.2402 16.6292,37.4202 L17.1802,37.4202 C17.2432,36.2402 17.4902,35.0732 17.8002,34.0262 L26.2522,4.1632 C28.1632,4.1632 31.5552,4.4102 33.4692,4.8432 C29.7672,18.9062 25.5092,32.5412 20.8232,46.0552" id="Fill-81" fill="#111645"></path>
            <path d="M50.291,19.2803 C46.16,19.2803 43.571,21.9973 43.571,29.9543 C43.571,37.8483 45.727,40.6233 50.165,40.6233 C54.611,40.6233 57.136,37.9143 57.136,29.9543 C57.136,22.1793 54.67,19.2803 50.291,19.2803 M50.165,46.6673 C41.718,46.6673 35.976,41.6113 35.976,29.9543 C35.976,19.4033 41.961,13.2333 50.354,13.2333 C58.493,13.2333 64.663,17.9223 64.663,29.9543 C64.663,40.9313 58.312,46.6673 50.165,46.6673" id="Fill-83" fill="#111645"></path>
            <path d="M82.4785,46.667 C75.3225,46.667 72.1745,43.154 72.1745,35.63 L72.1745,20.018 L68.4125,20.018 L68.4125,13.85 L72.1745,13.85 L72.1745,7.066 C74.2115,6.566 77.0465,6.019 79.2075,5.893 L79.2075,13.85 L87.4775,13.85 C87.4775,15.82 87.3495,17.922 87.0425,20.018 L79.2075,20.018 L79.2075,36.123 C79.2075,39.452 80.4415,40.129 83.4025,40.129 C84.9505,40.129 86.9795,39.701 88.0315,39.142 C88.5205,40.931 88.8275,43.211 89.0165,45.25 C87.3495,46.115 84.2035,46.667 82.4785,46.667" id="Fill-85" fill="#111645"></path>
            <path d="M100.2437,26.9932 L111.4117,26.9932 C111.4697,26.6272 111.4697,25.5692 111.4697,25.2022 C111.4697,20.6382 109.6837,18.6082 106.1047,18.6082 C102.4057,18.6082 100.3057,21.1272 100.2437,26.9932 M118.3187,31.7362 L100.1797,31.7362 L100.1797,32.2952 C100.1797,37.5442 101.8487,40.0002 107.9517,40.0002 C110.8557,40.0002 114.5567,39.1422 116.4637,38.0302 C117.1457,39.8872 117.7657,42.4722 118.0747,44.6342 C115.4197,45.9272 110.8557,46.6672 107.8337,46.6672 C97.9627,46.6672 92.4687,41.2432 92.4687,30.3812 C92.4687,18.7852 98.2727,13.2332 106.2287,13.2332 C114.6827,13.2332 118.5687,18.5362 118.5687,26.9932 C118.5687,28.3462 118.5027,30.2572 118.3187,31.7362" id="Fill-87" fill="#111645"></path>
            <path d="M149.7988,6.6948 C149.1848,6.5668 147.4558,6.5088 146.5908,6.5088 C144.1228,6.5088 143.1328,7.6188 143.1328,10.4568 L143.1328,13.8498 L150.1708,13.8498 C150.1708,15.8858 149.9798,17.9818 149.6758,20.0178 L143.1328,20.0178 L143.1328,47.2198 C143.1328,53.7618 139.6768,59.3758 132.7768,59.3758 C131.5988,59.3758 129.8088,59.1948 129.0728,59.0688 C129.0728,57.0308 129.1948,54.8768 129.4438,52.7758 C130.0588,52.9038 131.8448,53.0288 132.6478,53.0288 C135.1168,53.0288 136.1058,51.7288 136.1058,49.0718 L136.1058,20.0178 L132.4008,20.0178 L132.4008,13.8498 L136.1058,13.8498 L136.1058,11.0108 C136.1058,4.3518 140.6108,0.1528 146.4658,0.1528 C147.7038,0.1528 149.4878,0.2818 150.2338,0.4008 C150.2338,2.4338 150.1018,4.5958 149.7988,6.6948" id="Fill-89" fill="#111645"></path>
            <path d="M172.4312,20.8862 C171.6922,20.6982 170.5832,20.5742 169.5362,20.5742 C167.3172,20.5742 165.2742,21.0662 163.0582,22.7982 L163.0582,46.0552 L156.0232,46.0552 L156.0232,14.0992 C157.9942,13.8492 160.8322,13.6642 163.0582,13.6642 L163.0582,17.8012 L163.4252,17.8012 C166.6322,13.6042 168.7312,13.2332 170.7712,13.2332 C171.3832,13.2332 172.3692,13.3562 173.1112,13.6042 C173.1112,16.0112 172.8012,18.5362 172.4312,20.8862" id="Fill-91" fill="#111645"></path>
            <path d="M189.5293,19.2803 C185.3953,19.2803 182.8033,21.9973 182.8033,29.9543 C182.8033,37.8483 184.9623,40.6233 189.4043,40.6233 C193.8453,40.6233 196.3733,37.9143 196.3733,29.9543 C196.3733,22.1793 193.9093,19.2803 189.5293,19.2803 M189.4043,46.6673 C180.9553,46.6673 175.2163,41.6113 175.2163,29.9543 C175.2163,19.4033 181.2003,13.2333 189.5903,13.2333 C197.7333,13.2333 203.8993,17.9223 203.8993,29.9543 C203.8993,40.9313 197.5513,46.6673 189.4043,46.6673" id="Fill-93" fill="#111645"></path>
            <path d="M244.5737,46.0552 L244.5737,23.7222 C244.5737,21.1272 243.5307,19.4652 240.1977,19.4652 C237.8507,19.4652 236.0037,20.2022 234.2747,21.5622 L234.2747,46.0552 L227.2477,46.0552 L227.2477,23.7832 C227.2477,21.0662 226.1987,19.4652 222.9847,19.4652 C220.8257,19.4652 218.7897,20.2022 216.9337,21.5622 L216.9337,46.0552 L209.9037,46.0552 L209.9037,14.0992 C211.8847,13.8492 214.7147,13.6642 216.9337,13.6642 L216.9337,16.8752 L217.3097,16.8752 C220.2757,14.2192 222.4947,13.2332 225.6367,13.2332 C228.8417,13.2332 231.4367,14.3402 232.8557,17.4232 C236.0647,14.2192 238.8357,13.2332 242.2887,13.2332 C247.5407,13.2332 251.6137,15.9512 251.6137,23.1032 L251.6137,46.0552 L244.5737,46.0552 Z" id="Fill-95" fill="#111645"></path>
            <path d="M280.9253,15.4536 C280.6253,14.4656 280.4993,13.5426 280.4333,12.2476 L279.9393,12.2476 C279.8803,13.5426 279.8193,14.4656 279.5073,15.4536 L275.5063,28.6546 L284.8763,28.6546 L280.9253,15.4536 Z M290.1153,46.3626 L286.7303,35.0166 L273.7103,35.0166 L270.3123,46.3626 C268.0383,46.3626 265.5083,46.1776 263.3513,45.6826 C267.1143,32.2946 271.4903,18.4796 276.3643,4.4766 L284.8103,4.4766 C289.3803,18.1656 293.8223,32.4166 297.6503,45.6826 C295.3003,46.1776 292.7073,46.3626 290.1153,46.3626 Z" id="Fill-97" fill="#111645"></path>
            <path d="M317.2529,19.4653 C314.9129,19.4653 312.7559,20.2023 311.0199,21.6843 L311.0199,39.2053 C312.3219,40.1293 314.2829,40.5633 316.1419,40.5633 C321.2699,40.5633 323.4869,37.6013 323.4869,29.3933 C323.4869,21.6843 321.3309,19.4653 317.2529,19.4653 M316.5219,46.6673 C311.7079,46.6673 307.3229,45.5633 303.9859,42.9673 L303.9859,0.6513 C305.9659,0.4013 308.8039,0.1533 311.0199,0.1533 L311.0199,16.6283 L311.3949,16.6283 C313.9909,14.0373 316.3899,13.2333 319.4119,13.2333 C325.9489,13.2333 331.0129,17.4923 331.0129,28.7203 C331.0129,40.1883 325.6489,46.6673 316.5219,46.6673" id="Fill-99" fill="#111645"></path>
            <path d="M354.2588,20.8862 C353.5148,20.6982 352.4068,20.5742 351.3578,20.5742 C349.1338,20.5742 347.1018,21.0662 344.8758,22.7982 L344.8758,46.0552 L337.8498,46.0552 L337.8498,14.0992 C339.8198,13.8492 342.6548,13.6642 344.8758,13.6642 L344.8758,17.8012 L345.2528,17.8012 C348.4598,13.6042 350.5578,13.2332 352.5908,13.2332 C353.2028,13.2332 354.1918,13.3562 354.9388,13.6042 C354.9388,16.0112 354.6238,18.5362 354.2588,20.8862" id="Fill-101" fill="#111645"></path>
            <path d="M372.9404,19.2803 C368.8044,19.2803 366.2094,21.9973 366.2094,29.9543 C366.2094,37.8483 368.3794,40.6233 372.8094,40.6233 C377.2544,40.6233 379.7854,37.9143 379.7854,29.9543 C379.7854,22.1793 377.3144,19.2803 372.9404,19.2803 M372.8094,46.6673 C364.3574,46.6673 358.6244,41.6113 358.6244,29.9543 C358.6244,19.4033 364.6104,13.2333 373.0004,13.2333 C381.1444,13.2333 387.3094,17.9223 387.3094,29.9543 C387.3094,40.9313 380.9634,46.6673 372.8094,46.6673" id="Fill-103" fill="#111645"></path>
            <path d="M413.2666,20.5747 C412.0416,19.8367 410.1906,19.4037 408.5236,19.4037 C403.5836,19.4037 401.3036,21.9977 401.3036,30.1977 C401.3036,38.2747 403.2106,40.4387 407.4766,40.4387 C409.9396,40.4387 411.7286,39.8867 413.2666,38.8977 L413.2666,20.5747 Z M420.3626,37.4197 C420.3626,39.0187 420.8066,39.6347 422.2136,39.6347 L425.8596,39.6347 L425.8596,41.9207 C425.8596,45.4947 423.4516,46.6667 420.6746,46.6667 C418.2046,46.6667 415.6226,45.8047 414.3816,42.4157 L414.1916,42.4157 C411.3586,45.4387 408.4606,46.6667 405.5046,46.6667 C398.0376,46.6667 393.7826,41.6107 393.7826,30.8787 C393.7826,19.2807 399.4486,13.2327 407.8386,13.2327 C409.6946,13.2327 411.5436,13.5427 413.2666,14.0997 C414.3816,13.6037 416.0506,13.3567 417.6526,13.3567 C418.6466,13.3567 419.5616,13.4797 420.3626,13.6037 L420.3626,37.4197 Z" id="Fill-105" fill="#111645"></path>
            <path d="M450.5215,20.5747 C449.2875,19.8367 447.0735,19.2807 445.2855,19.2807 C440.4075,19.2807 438.0625,21.9357 438.0625,30.1977 C438.0625,38.2157 439.9785,40.4387 444.2385,40.4387 C446.6425,40.4387 448.7905,39.9447 450.5215,38.8347 L450.5215,20.5747 Z M457.8725,46.6667 C455.4625,46.6667 452.7445,45.8047 451.5725,42.3527 L451.3305,42.3527 C448.0535,45.9267 444.9125,46.6667 441.8885,46.6667 C434.4795,46.6667 430.5365,41.1777 430.5365,30.8787 C430.5365,18.2897 436.3315,13.2327 444.6015,13.2327 C446.4535,13.2327 448.7905,13.6037 450.5215,14.1597 L450.5215,0.6507 C452.4925,0.4007 455.3965,0.1537 457.5535,0.1537 L457.5535,37.4197 C457.5535,39.0187 457.9935,39.6347 459.4085,39.6347 L463.0485,39.6347 L463.0485,41.9207 C463.0485,45.4947 460.6425,46.6667 457.8725,46.6667 Z" id="Fill-107" fill="#111645"></path>
            <path d="M79.6748,98.168 L85.2328,98.168 L82.5988,88.756 L82.3868,88.756 L79.6748,98.168 Z M84.4358,86.442 L90.3118,105.72 L87.4658,105.72 L85.9488,100.509 L79.0088,100.509 L77.5198,105.72 L74.7308,105.72 L80.6318,86.442 L84.4358,86.442 Z" id="Fill-109" fill="#AC3226"></path>
            <path d="M101.082,103.8584 C103.211,103.8584 104.459,102.1314 104.459,98.8594 C104.459,95.4294 103.237,93.6754 101.002,93.6754 C99.912,93.6754 98.954,94.2314 98.052,95.3504 L98.052,102.1314 C98.954,103.2734 99.938,103.8584 101.082,103.8584 Z M98.052,86.4414 L98.052,93.3014 C98.901,92.1584 100.072,91.5734 101.456,91.5734 C104.803,91.5734 107.038,94.2314 107.038,98.6734 C107.038,103.3004 104.938,105.9594 101.482,105.9594 C99.938,105.9594 98.714,105.3764 97.757,104.1254 L97.357,105.7194 L95.391,105.7194 C95.522,104.3374 95.549,103.0354 95.549,101.8104 L95.549,86.4414 L98.052,86.4414 Z" id="Fill-111" fill="#AC3226"></path>
            <path d="M119.6162,95.2974 C118.6592,94.1784 117.6202,93.5954 116.5042,93.5954 C115.2552,93.5954 114.4812,94.2604 114.4812,95.2174 C114.4812,96.3074 115.3882,96.7324 117.0362,97.3434 C120.0402,98.4604 121.6622,99.4454 121.6622,101.8104 C121.6622,104.2834 119.7212,105.9854 116.7452,105.9854 C114.5632,105.9854 112.6732,105.0284 111.4252,103.2734 L113.2622,101.8104 C114.3492,103.2204 115.4942,103.9404 116.8782,103.9404 C118.2852,103.9404 119.1892,103.1144 119.1892,102.0254 C119.1892,100.4824 117.8052,100.1904 115.7852,99.4194 C113.2332,98.4334 111.9842,97.4494 111.9842,95.4034 C111.9842,93.1954 113.7392,91.5474 116.4512,91.5474 C118.3932,91.5474 119.9342,92.2644 121.2362,93.7814 L119.6162,95.2974 Z" id="Fill-113" fill="#AC3226"></path>
            <path d="M132.0083,93.5684 C130.1743,93.5684 129.0293,94.8714 128.9233,97.2644 L134.9593,97.2644 C134.9053,94.8984 133.7623,93.5684 132.0083,93.5684 Z M128.8963,99.2054 L128.8963,99.4714 C128.8963,102.2904 130.1743,103.8584 132.3793,103.8584 C133.8423,103.8584 134.9593,103.1404 135.7563,101.6774 L137.6163,102.8224 C136.4743,104.8954 134.6393,105.9854 132.2473,105.9854 C128.4453,105.9854 126.3433,103.5124 126.3433,98.9144 C126.3433,94.1524 128.4713,91.5474 132.0873,91.5474 C135.4113,91.5474 137.5373,94.0724 137.5373,98.4884 C137.5373,98.7264 137.5103,98.9664 137.5103,99.2054 L128.8963,99.2054 Z" id="Fill-115" fill="#AC3226"></path>
            <path d="M153.8657,105.7197 L151.3397,105.7197 L151.3397,96.3867 C151.3397,94.5787 150.7017,93.7027 149.2917,93.7027 C148.2007,93.7027 147.0317,94.3137 145.8077,95.5347 L145.8077,105.7197 L143.3087,105.7197 L143.3087,91.7877 L145.6217,91.7877 L145.6217,93.7027 C147.1647,92.3177 148.4927,91.5997 150.0617,91.5997 C152.4557,91.5997 153.8657,93.0627 153.8657,95.6957 L153.8657,105.7197 Z" id="Fill-117" fill="#AC3226"></path>
            <path d="M163.5195,87.3184 L163.5195,91.7884 L166.5765,91.7884 L166.5765,93.9144 L163.5195,93.9144 L163.5195,101.9994 C163.5195,103.2204 163.7845,103.7794 165.0895,103.7794 C165.5655,103.7794 166.0725,103.7524 166.5765,103.6204 L166.5765,105.7194 C165.9655,105.9064 165.1955,105.9854 164.2645,105.9854 C162.0575,105.9854 161.0205,105.0554 161.0205,103.0354 L161.0205,93.9144 L159.0505,93.9144 L159.0505,91.7884 L161.0205,91.7884 L161.0205,87.3184 L163.5195,87.3184 Z" id="Fill-119" fill="#AC3226"></path>
            <path d="M176.5249,93.5684 C174.6909,93.5684 173.5449,94.8714 173.4399,97.2644 L179.4749,97.2644 C179.4219,94.8984 178.2779,93.5684 176.5249,93.5684 Z M173.4129,99.2054 L173.4129,99.4714 C173.4129,102.2904 174.6909,103.8584 176.8949,103.8584 C178.3579,103.8584 179.4749,103.1404 180.2719,101.6774 L182.1329,102.8224 C180.9909,104.8954 179.1559,105.9854 176.7629,105.9854 C172.9619,105.9854 170.8599,103.5124 170.8599,98.9144 C170.8599,94.1524 172.9879,91.5474 176.6039,91.5474 C179.9279,91.5474 182.0539,94.0724 182.0539,98.4884 C182.0539,98.7264 182.0269,98.9664 182.0269,99.2054 L173.4129,99.2054 Z" id="Fill-121" fill="#AC3226"></path>
            <path d="M192.3994,93.5684 C190.5654,93.5684 189.4194,94.8714 189.3144,97.2644 L195.3494,97.2644 C195.2964,94.8984 194.1544,93.5684 192.3994,93.5684 Z M189.2874,99.2054 L189.2874,99.4714 C189.2874,102.2904 190.5654,103.8584 192.7704,103.8584 C194.2334,103.8584 195.3494,103.1404 196.1484,101.6774 L198.0094,102.8224 C196.8654,104.8954 195.0324,105.9854 192.6374,105.9854 C188.8364,105.9854 186.7354,103.5124 186.7354,98.9144 C186.7354,94.1524 188.8624,91.5474 192.4784,91.5474 C195.8024,91.5474 197.9304,94.0724 197.9304,98.4884 C197.9304,98.7264 197.9034,98.9664 197.9034,99.2054 L189.2874,99.2054 Z" id="Fill-123" fill="#AC3226"></path>
            <path d="M220.187,103.8584 C222.313,103.8584 223.563,102.1314 223.563,98.8594 C223.563,95.4294 222.34,93.6754 220.108,93.6754 C219.016,93.6754 218.059,94.2314 217.154,95.3504 L217.154,102.1314 C218.059,103.2734 219.045,103.8584 220.187,103.8584 Z M217.154,86.4414 L217.154,93.3014 C218.006,92.1584 219.177,91.5734 220.559,91.5734 C223.91,91.5734 226.144,94.2314 226.144,98.6734 C226.144,103.3004 224.042,105.9594 220.585,105.9594 C219.045,105.9594 217.82,105.3764 216.864,104.1254 L216.463,105.7194 L214.497,105.7194 C214.629,104.3374 214.656,103.0354 214.656,101.8104 L214.656,86.4414 L217.154,86.4414 Z" id="Fill-125" fill="#AC3226"></path>
            <path d="M239.0942,98.5679 C235.3182,99.2319 233.4842,100.2169 233.4842,101.9989 C233.4842,103.1409 234.2282,103.8589 235.4502,103.8589 C236.5162,103.8589 237.7372,103.2199 239.0942,101.9989 L239.0942,98.5679 Z M234.7872,105.9059 C232.4472,105.9059 230.9832,104.4159 230.9832,102.1309 C230.9832,99.0729 233.6422,97.4759 239.1472,96.5719 L239.1472,95.5089 C239.1472,94.3669 238.1902,93.6219 236.6752,93.6219 C235.2922,93.6219 234.2022,94.2609 233.4572,95.5089 L231.5162,94.3929 C232.6582,92.4229 234.3872,91.5469 236.8862,91.5469 C239.8132,91.5469 241.6212,93.0889 241.6212,95.6699 L241.6212,103.6199 C241.6212,104.2569 241.7272,104.9229 241.8862,105.5609 L241.8862,105.7199 L239.3342,105.7199 L239.0682,104.1249 C237.7912,105.2969 236.3542,105.9059 234.7872,105.9059 Z" id="Fill-127" fill="#AC3226"></path>
            <polygon id="Fill-129" fill="#AC3226" points="248.506 105.72 251.005 105.72 251.005 86.442 248.506 86.442"></polygon>
            <polygon id="Fill-131" fill="#AC3226" points="258.106 105.72 260.605 105.72 260.605 86.442 258.106 86.442"></polygon>
            <path d="M269.0356,98.7529 C269.0356,102.1049 270.1786,103.8059 272.3336,103.8059 C274.4586,103.8059 275.6306,102.1049 275.6306,98.7799 C275.6306,95.4299 274.4856,93.7289 272.3336,93.7289 C270.1786,93.7289 269.0356,95.4029 269.0356,98.7529 M278.1826,98.7529 C278.1826,103.3539 276.0006,105.9849 272.3336,105.9849 C268.6636,105.9849 266.4556,103.3539 266.4556,98.7529 C266.4556,94.1519 268.6636,91.5469 272.3336,91.5469 C276.0006,91.5469 278.1826,94.1519 278.1826,98.7529" id="Fill-132" fill="#AC3226"></path>
            <path d="M286.8008,87.3184 L286.8008,91.7884 L289.8578,91.7884 L289.8578,93.9144 L286.8008,93.9144 L286.8008,101.9994 C286.8008,103.2204 287.0658,103.7794 288.3688,103.7794 C288.8468,103.7794 289.3528,103.7524 289.8578,103.6204 L289.8578,105.7194 C289.2468,105.9064 288.4748,105.9854 287.5448,105.9854 C285.3368,105.9854 284.3008,105.0554 284.3008,103.0354 L284.3008,93.9144 L282.3308,93.9144 L282.3308,91.7884 L284.3008,91.7884 L284.3008,87.3184 L286.8008,87.3184 Z" id="Fill-133" fill="#AC3226"></path>
            <path d="M301.9551,95.2974 C300.9981,94.1784 299.9631,93.5954 298.8451,93.5954 C297.5941,93.5954 296.8231,94.2604 296.8231,95.2174 C296.8231,96.3074 297.7261,96.7324 299.3761,97.3434 C302.3821,98.4604 304.0031,99.4454 304.0031,101.8104 C304.0031,104.2834 302.0601,105.9854 299.0841,105.9854 C296.9031,105.9854 295.0161,105.0284 293.7661,103.2734 L295.6011,101.8104 C296.6901,103.2204 297.8331,103.9404 299.2181,103.9404 C300.6261,103.9404 301.5311,103.1144 301.5311,102.0254 C301.5311,100.4824 300.1471,100.1904 298.1271,99.4194 C295.5731,98.4334 294.3241,97.4494 294.3241,95.4034 C294.3241,93.1954 296.0781,91.5474 298.7921,91.5474 C300.7331,91.5474 302.2761,92.2644 303.5761,93.7814 L301.9551,95.2974 Z" id="Fill-134" fill="#AC3226"></path>
            <path d="M326.3682,88.4897 C325.8622,88.4097 325.4102,88.3577 325.0912,88.3577 C323.9222,88.3577 323.4712,88.8617 323.4712,90.1127 L323.4712,91.7877 L326.2632,91.7877 L326.2632,93.9137 L323.4712,93.9137 L323.4712,105.7197 L320.9712,105.7197 L320.9712,93.9137 L318.7902,93.9137 L318.7902,91.7877 L320.9712,91.7877 L320.9712,89.7657 C320.9712,87.4527 322.2202,86.1757 324.5592,86.1757 C325.0912,86.1757 325.7022,86.2547 326.3682,86.3877 L326.3682,88.4897 Z" id="Fill-135" fill="#AC3226"></path>
            <path d="M332.7207,98.7529 C332.7207,102.1049 333.8657,103.8059 336.0197,103.8059 C338.1467,103.8059 339.3177,102.1049 339.3177,98.7799 C339.3177,95.4299 338.1727,93.7289 336.0197,93.7289 C333.8657,93.7289 332.7207,95.4029 332.7207,98.7529 M341.8687,98.7529 C341.8687,103.3539 339.6877,105.9849 336.0197,105.9849 C332.3507,105.9849 330.1437,103.3539 330.1437,98.7529 C330.1437,94.1519 332.3507,91.5469 336.0197,91.5469 C339.6877,91.5469 341.8687,94.1519 341.8687,98.7529" id="Fill-136" fill="#AC3226"></path>
            <path d="M354.3145,94.2314 L354.1035,94.2314 C352.4795,94.2314 351.0705,95.4294 350.2185,97.6364 L350.2185,105.7194 L347.6395,105.7194 L347.6395,91.7884 L350.1135,91.7884 L350.1135,94.5784 C351.0435,92.5854 352.2675,91.6004 353.8895,91.6004 C354.0235,91.6004 354.1565,91.6004 354.3145,91.6264 L354.3145,94.2314 Z" id="Fill-137" fill="#AC3226"></path>
            <path d="M373.6201,98.168 L379.1791,98.168 L376.5461,88.756 L376.3331,88.756 L373.6201,98.168 Z M378.3811,86.442 L384.2581,105.72 L381.4101,105.72 L379.8971,100.509 L372.9551,100.509 L371.4671,105.72 L368.6741,105.72 L374.5771,86.442 L378.3811,86.442 Z" id="Fill-138" fill="#AC3226"></path>
            <path d="M404.0654,91.5474 C406.2744,91.5474 407.6584,92.9304 407.6584,95.2714 L407.6584,105.7194 L405.1304,105.7194 L405.1304,96.0684 C405.1304,94.4454 404.5194,93.6754 403.2154,93.6754 C402.0194,93.6754 400.8504,94.2874 399.7594,95.4824 L399.7594,105.7194 L397.3144,105.7194 L397.3144,96.2814 C397.3144,94.4994 396.7814,93.6754 395.3994,93.6754 C394.2034,93.6754 393.0594,94.2874 391.9684,95.5084 L391.9684,105.7194 L389.4684,105.7194 L389.4684,91.7884 L391.7824,91.7884 L391.7824,93.6754 C393.1404,92.2124 394.4674,91.5474 396.1974,91.5474 C397.7654,91.5474 398.8804,92.2914 399.4664,93.7554 C400.9294,92.2384 402.2854,91.5474 404.0654,91.5474" id="Fill-139" fill="#AC3226"></path>
            <path d="M419.041,93.5684 C417.207,93.5684 416.062,94.8714 415.956,97.2644 L421.991,97.2644 C421.938,94.8984 420.794,93.5684 419.041,93.5684 Z M415.93,99.2054 L415.93,99.4714 C415.93,102.2904 417.207,103.8584 419.411,103.8584 C420.873,103.8584 421.991,103.1404 422.788,101.6774 L424.649,102.8224 C423.507,104.8954 421.673,105.9854 419.278,105.9854 C415.478,105.9854 413.375,103.5124 413.375,98.9144 C413.375,94.1524 415.504,91.5474 419.12,91.5474 C422.444,91.5474 424.569,94.0724 424.569,98.4884 C424.569,98.7264 424.543,98.9664 424.543,99.2054 L415.93,99.2054 Z" id="Fill-140" fill="#AC3226"></path>
            <path d="M437.0146,94.2314 L436.8026,94.2314 C435.1796,94.2314 433.7696,95.4294 432.9186,97.6364 L432.9186,105.7194 L430.3406,105.7194 L430.3406,91.7884 L432.8136,91.7884 L432.8136,94.5784 C433.7436,92.5854 434.9676,91.6004 436.5916,91.6004 C436.7236,91.6004 436.8566,91.6004 437.0146,91.6264 L437.0146,94.2314 Z" id="Fill-141" fill="#AC3226"></path>
            <path d="M442.226,105.72 L444.727,105.72 L444.727,91.788 L442.226,91.788 L442.226,105.72 Z M442.094,89.126 L444.835,89.126 L444.835,86.441 L442.094,86.441 L442.094,89.126 Z" id="Fill-142" fill="#AC3226"></path>
            <path d="M459.2744,96.0952 C458.7694,94.4992 457.7564,93.6762 456.3774,93.6762 C454.3264,93.6762 453.1584,95.4292 453.1584,98.7532 C453.1584,102.1582 454.2204,103.8322 456.4034,103.8322 C457.7834,103.8322 458.9804,102.9542 459.7254,101.3332 L461.7464,102.3962 C460.6564,104.7892 458.8754,105.9592 456.2954,105.9592 C452.6514,105.9592 450.6044,103.4592 450.6044,98.9142 C450.6044,94.2312 452.8394,91.5472 456.2424,91.5472 C458.8754,91.5472 460.6824,92.8512 461.5354,95.2442 L459.2744,96.0952 Z" id="Fill-143" fill="#AC3226"></path>
            <path d="M474.4033,98.5679 C470.6273,99.2319 468.7933,100.2169 468.7933,101.9989 C468.7933,103.1409 469.5373,103.8589 470.7583,103.8589 C471.8243,103.8589 473.0473,103.2199 474.4033,101.9989 L474.4033,98.5679 Z M470.0963,105.9059 C467.7553,105.9059 466.2933,104.4159 466.2933,102.1309 C466.2933,99.0729 468.9513,97.4759 474.4563,96.5719 L474.4563,95.5089 C474.4563,94.3669 473.5013,93.6219 471.9833,93.6219 C470.5993,93.6219 469.5103,94.2609 468.7653,95.5089 L466.8253,94.3929 C467.9663,92.4229 469.6963,91.5469 472.1953,91.5469 C475.1223,91.5469 476.9293,93.0889 476.9293,95.6699 L476.9293,103.6199 C476.9293,104.2569 477.0353,104.9229 477.1943,105.5609 L477.1943,105.7199 L474.6423,105.7199 L474.3773,104.1249 C473.0993,105.2969 471.6643,105.9059 470.0963,105.9059 Z" id="Fill-144" fill="#AC3226"></path>
            <path d="M494.2949,105.7197 L491.7689,105.7197 L491.7689,96.3867 C491.7689,94.5787 491.1299,93.7027 489.7189,93.7027 C488.6309,93.7027 487.4609,94.3137 486.2359,95.5347 L486.2359,105.7197 L483.7379,105.7197 L483.7379,91.7877 L486.0509,91.7877 L486.0509,93.7027 C487.5929,92.3177 488.9219,91.5997 490.4909,91.5997 C492.8839,91.5997 494.2949,93.0627 494.2949,95.6957 L494.2949,105.7197 Z" id="Fill-145" fill="#AC3226"></path>
            <path d="M507.8301,95.2974 C506.8721,94.1784 505.8361,93.5954 504.7211,93.5954 C503.4681,93.5954 502.6971,94.2604 502.6971,95.2174 C502.6971,96.3074 503.6021,96.7324 505.2501,97.3434 C508.2561,98.4604 509.8791,99.4454 509.8791,101.8104 C509.8791,104.2834 507.9351,105.9854 504.9591,105.9854 C502.7771,105.9854 500.8901,105.0284 499.6411,103.2734 L501.4751,101.8104 C502.5651,103.2204 503.7081,103.9404 505.0911,103.9404 C506.5011,103.9404 507.4041,103.1144 507.4041,102.0254 C507.4041,100.4824 506.0211,100.1904 504.0011,99.4194 C501.4481,98.4334 500.1971,97.4494 500.1971,95.4034 C500.1971,93.1954 501.9521,91.5474 504.6661,91.5474 C506.6061,91.5474 508.1491,92.2644 509.4511,93.7814 L507.8301,95.2974 Z" id="Fill-146" fill="#AC3226"></path>
        </g>
    </g>
</svg>